<svg width="48" height="48" viewBox="0 0 48 48" fill="none" xmlns="http://www.w3.org/2000/svg">
<g clip-path="url(#clip0_7201_8142)">
<g filter="url(#filter0_dd_7201_8142)">
<path d="M39.4 25.2222C42.678 22.14 46 18.4456 46 13.6111C46 10.5317 44.7252 7.57832 42.456 5.40082C40.1868 3.22331 37.1091 2 33.9 2C30.028 2 27.3 3.05556 24 6.22222C20.7 3.05556 17.972 2 14.1 2C10.8909 2 7.8132 3.22331 5.54401 5.40082C3.27482 7.57832 2 10.5317 2 13.6111C2 18.4667 5.3 22.1611 8.6 25.2222L24 40L39.4 25.2222Z" fill="white"/>
<path d="M39.4 25.2222C42.678 22.14 46 18.4456 46 13.6111C46 10.5317 44.7252 7.57832 42.456 5.40082C40.1868 3.22331 37.1091 2 33.9 2C30.028 2 27.3 3.05556 24 6.22222C20.7 3.05556 17.972 2 14.1 2C10.8909 2 7.8132 3.22331 5.54401 5.40082C3.27482 7.57832 2 10.5317 2 13.6111C2 18.4667 5.3 22.1611 8.6 25.2222L24 40L39.4 25.2222Z" stroke="#282828" stroke-width="2.2" stroke-linecap="round" stroke-linejoin="round"/>
</g>
</g>
<defs>
<filter id="filter0_dd_7201_8142" x="-3.09961" y="0.900391" width="54.1992" height="48.1992" filterUnits="userSpaceOnUse" color-interpolation-filters="sRGB">
<feFlood flood-opacity="0" result="BackgroundImageFix"/>
<feColorMatrix in="SourceAlpha" type="matrix" values="0 0 0 0 0 0 0 0 0 0 0 0 0 0 0 0 0 0 127 0" result="hardAlpha"/>
<feOffset dy="4"/>
<feGaussianBlur stdDeviation="2"/>
<feComposite in2="hardAlpha" operator="out"/>
<feColorMatrix type="matrix" values="0 0 0 0 0 0 0 0 0 0 0 0 0 0 0 0 0 0 0.25 0"/>
<feBlend mode="normal" in2="BackgroundImageFix" result="effect1_dropShadow_7201_8142"/>
<feColorMatrix in="SourceAlpha" type="matrix" values="0 0 0 0 0 0 0 0 0 0 0 0 0 0 0 0 0 0 127 0" result="hardAlpha"/>
<feOffset dy="4"/>
<feGaussianBlur stdDeviation="2"/>
<feComposite in2="hardAlpha" operator="out"/>
<feColorMatrix type="matrix" values="0 0 0 0 0 0 0 0 0 0 0 0 0 0 0 0 0 0 0.25 0"/>
<feBlend mode="normal" in2="effect1_dropShadow_7201_8142" result="effect2_dropShadow_7201_8142"/>
<feBlend mode="normal" in="SourceGraphic" in2="effect2_dropShadow_7201_8142" result="shape"/>
</filter>
<clipPath id="clip0_7201_8142">
<rect width="48" height="48" fill="white"/>
</clipPath>
</defs>
</svg>
